#!OML:ASF F:\VICON\USERDATA\INSTALL\rory3\rory3.ASF
:FULLY-SPECIFIED
:DEGREES
161
root 5.03913 18.0803 11.2726 -5.59446 -4.84694 1.12155
lowerback 23.6006 -2.53436 -1.53903
upperback 2.99265 -3.22279 4.65707
thorax -9.48361 -1.3889 7.08877
lowerneck -4.5248 -7.94489 -7.04916
upperneck 31.3386 -10.2535 -0.995801
head 11.2326 -5.61722 -0.289256
rclavicle 2.98177e-014 -9.54166e-015
rhumerus -48.8119 -21.1469 -48.674
rradius 97.105
rwrist 38.8506
rhand -16.7671 -0.139473
rfingers 7.12502
rthumb 9.46004 -29.9071
lclavicle 2.98177e-014 -9.54166e-015
lhumerus -54.4961 10.2897 71.2422
lradius 48.2098
lwrist 9.48625
lhand -10.7187 51.3462
lfingers 7.12502
lthumb 15.2914 80.7609
rfemur -9.27535 -0.056977 20.9539
rtibia 63.7202
rfoot -11.5763 -16.0307
rtoes 15.1212
lfemur -16.5493 2.01687 -21.5112
ltibia 38.7827
lfoot -5.1958 -4.5426
ltoes -11.234
162
root 5.02284 18.0817 11.1328 -5.71677 -4.69918 1.09311
lowerback 23.4691 -2.54421 -1.40071
upperback 3.06354 -3.20103 4.68312
thorax -9.34332 -1.38993 7.01591
lowerneck -4.58078 -7.97315 -6.96833
upperneck 31.1934 -10.2597 -1.11283
head 11.1742 -5.62167 -0.342551
rclavicle 3.26007e-014 -2.22639e-014
rhumerus -49.8356 -22.3818 -47.5114
rradius 98.0694
rwrist 38.1439
rhand -17.6521 0.4764
rfingers 7.12502
rthumb 8.60607 -29.3282
lclavicle 3.26007e-014 -2.22639e-014
lhumerus -54.6932 10.3216 71.2271
lradius 48.5476
lwrist 9.64959
lhand -10.9076 50.7394
lfingers 7.12502
lthumb 15.1095 80.1679
rfemur -7.49894 0.493465 20.9102
rtibia 63.0005
rfoot -11.2034 -15.985
rtoes 14.8387
lfemur -16.8844 1.93911 -21.3859
ltibia 38.6988
lfoot -4.78416 -4.67295
ltoes -10.8612
163
root 5.00931 18.0798 10.9889 -5.70487 -4.61774 0.898045
lowerback 23.134 -2.56842 -1.049
upperback 3.17145 -3.14805 4.72736
thorax -9.06846 -1.38866 6.81197
lowerneck -4.71234 -8.00312 -6.8451
upperneck 31.2276 -10.2707 -1.2446
head 11.1971 -5.62496 -0.417805
rclavicle 2.78299e-015 -1.27222e-014
rhumerus -50.6503 -23.7363 -46.4952
rradius 98.6912
rwrist 37.5277
rhand -18.517 1.01258
rfingers 7.12502
rthumb 7.7714 -28.8246
lclavicle 2.78299e-015 -1.27222e-014
lhumerus -54.8514 10.2206 71.2582
lradius 49.0291
lwrist 9.87068
lhand -10.8648 50.6063
lfingers 7.12502
lthumb 15.1507 80.0317
rfemur -5.889 1.09366 21.0776
rtibia 62.2083
rfoot -10.5867 -16.1886
rtoes 15.2001
lfemur -17.3401 1.81819 -21.069
ltibia 38.5923
lfoot -4.34821 -4.76982
ltoes -9.42967
164
root 4.99233 18.0739 10.8378 -5.71401 -4.74315 0.761647
lowerback 22.6931 -2.49615 -0.832777
upperback 3.45368 -3.01663 4.74653
thorax -8.54648 -1.35618 6.61744
lowerneck -5.01899 -8.0361 -6.62487
upperneck 31.2593 -10.3073 -1.30648
head 11.251 -5.61853 -0.495235
rclavicle 4.69132e-014 0
rhumerus -51.1898 -25.0047 -45.6648
rradius 99.2133
rwrist 36.9656
rhand -19.0395 1.48567
rfingers 7.12502
rthumb 7.26703 -28.3695
lclavicle 4.69132e-014 0
lhumerus -54.7057 10.2243 71.2853
lradius 49.3491
lwrist 10.0182
lhand -10.9585 50.4838
lfingers 7.12502
lthumb 15.0605 79.916
rfemur -4.34129 1.87401 21.2313
rtibia 61.3636
rfoot -9.9678 -16.3373
rtoes 14.7043
lfemur -17.8033 1.82029 -20.7768
ltibia 38.4231
lfoot -3.92392 -4.87351
ltoes -10.023
165
root 4.98244 18.0628 10.685 -5.76991 -4.84292 0.599089
lowerback 23.3842 -2.48058 -0.624653
upperback 2.87561 -2.89588 4.87772
thorax -9.57726 -1.25764 6.70012
lowerneck -4.3267 -7.96823 -6.7715
upperneck 31.5647 -10.191 -1.53526
head 11.229 -5.61962 -0.514982
rclavicle 2.38542e-015 1.11319e-014
rhumerus -52.6928 -24.7129 -44.3122
rradius 99.7703
rwrist 36.3838
rhand -19.7449 1.82346
rfingers 7.12502
rthumb 6.58606 -28.0541
lclavicle 2.38542e-015 1.11319e-014
lhumerus -56.072 10.0695 71.2934
lradius 49.6364
lwrist 10.2807
lhand -11.4983 49.98
lfingers 7.12502
lthumb 14.5404 79.4504
rfemur -2.71149 2.50614 21.3316
rtibia 60.4306
rfoot -9.3213 -16.1284
rtoes 10.6667
lfemur -18.2483 1.79204 -20.4773
ltibia 38.3197
lfoot -3.60212 -5.13682
ltoes -11.0091
166
root 4.98048 18.0502 10.5446 -5.88553 -4.71374 0.819007
lowerback 22.7832 -2.54526 -0.474797
upperback 3.11819 -2.97813 4.75942
thorax -8.99072 -1.32833 6.44156
lowerneck -4.40151 -7.98927 -6.68235
upperneck 31.5203 -10.1993 -1.61961
head 11.215 -5.62036 -0.562128
rclavicle -4.05521e-014 3.81667e-014
rhumerus -53.2488 -25.6061 -43.5733
rradius 100.172
rwrist 35.8725
rhand -20.3891 2.0127
rfingers 7.12502
rthumb 5.96418 -27.8834
lclavicle -4.05521e-014 3.81667e-014
lhumerus -55.937 10.1804 71.3023
lradius 49.6481
lwrist 10.4876
lhand -11.8486 49.8807
lfingers 7.12502
lthumb 14.2029 79.3751
rfemur -0.925219 2.86577 20.8809
rtibia 59.3564
rfoot -9.27403 -16.2123
rtoes 12.9132
lfemur -18.5279 1.48526 -20.6806
ltibia 38.1729
lfoot -3.50858 -5.18605
ltoes -12.497
